<?xml version="1.0" encoding="UTF-8"?>
<svg xmlns="http://www.w3.org/2000/svg" width="83" height="70" viewBox="0 0 83 70" fill="none">
  <g clip-path="url(#clip0_24_31)">
    <mask id="mask0_24_31" style="mask-type:luminance" maskUnits="userSpaceOnUse" x="0" y="0" width="83" height="70">
      <path d="M0 0H82.9786V70H0V0Z" fill="white"></path>
    </mask>
    <g mask="url(#mask0_24_31)">
      <path d="M60.4402 48.3684L64.8932 63.6775H69.2638L71.6273 54.801L73.936 63.6775H78.0861L82.9785 48.3684H78.718L76.1071 57.6038L73.7437 48.3684H69.7576L67.1474 57.6038L65.0029 48.3684H60.4402ZM49.8574 56.0649C49.8574 54.0308 51.3703 52.437 53.2934 52.437C55.3281 52.437 56.922 54.0308 56.922 56.0373C56.922 58.0988 55.3556 59.7202 53.3485 59.7202C51.397 59.7202 49.8574 58.1263 49.8574 56.0649ZM45.4057 56.0931C45.4057 60.5997 48.9236 64.1732 53.3767 64.1732C57.7189 64.1732 61.2644 60.5178 61.2644 55.9823C61.2644 51.53 57.7465 47.9841 53.3209 47.9841C48.9787 47.9841 45.4057 51.6401 45.4057 56.0931ZM41.0082 48.3684H36.8853V63.6775H41.283V55.5698C41.283 54.4703 41.3931 54.0852 41.8049 53.5908C42.4648 52.8765 43.0975 52.6845 45.1307 52.5457V47.7365C42.7674 47.8196 41.9969 48.2867 41.0082 50.2655V48.3684ZM31.0856 56.1742C31.0856 58.2364 29.4091 59.9127 27.348 59.9127C25.2587 59.9127 23.6374 58.2914 23.6374 56.1473C23.6374 54.0852 25.3141 52.3539 27.3199 52.3539C29.4091 52.3539 31.0856 54.0584 31.0856 56.1742ZM31.1138 62.0011V63.0462C31.1138 65.0795 29.7113 66.2891 27.3199 66.2891C25.8913 66.2891 25.1761 65.8772 24.5448 64.7501H19.3778C19.7619 68.1586 22.5104 70 27.1833 70C32.4875 70 35.5114 67.5811 35.5114 63.3482V48.3684H31.0309V49.908C29.7664 48.726 28.5299 48.2316 26.7159 48.2316C22.6209 48.2316 19.1022 51.9419 19.1022 56.2299C19.1022 60.5721 22.4829 63.9531 26.8528 63.9531C28.9146 63.9531 30.3435 63.2931 31.1138 62.0011ZM18.0032 48.369H13.6049V63.6781H18.0032V48.369ZM6.48756 48.0665C2.9959 48.0665 0.467767 50.238 0.467767 53.2058C0.467767 55.4605 1.56699 56.7517 4.15027 57.5487C7.36643 58.5664 7.61412 58.7032 7.61412 59.5827C7.61412 60.3253 7.06396 60.7922 6.18485 60.7922C5.0572 60.7922 4.5905 60.3253 4.3982 59.0607H-0.000152588C0.192385 62.1943 2.55543 64.1732 6.10212 64.1732C9.78499 64.1732 12.5057 61.9467 12.5057 58.9782C12.5057 56.6693 11.0493 55.1573 8.10889 54.4429L6.89912 54.1409C5.66202 53.8659 5.16774 53.3989 5.16774 52.602C5.16774 51.8593 5.68984 51.3375 6.45938 51.3375C7.33898 51.3375 7.77847 51.8313 7.91635 53.0414H12.039C12.0664 50.0731 9.84002 48.0665 6.48756 48.0665ZM16.143 21.9859C10.0814 21.9859 5.14989 26.9176 5.14989 32.9793C5.14989 39.0404 10.0814 43.9724 16.143 43.9724C18.7356 43.9718 21.1214 43.0699 23.0034 41.563C20.6845 39.7471 18.8513 37.3109 17.767 34.4597C17.3646 34.901 16.7853 35.1778 16.143 35.1778C14.9308 35.1778 13.9444 34.1916 13.9444 32.9793C13.9444 31.7666 14.9308 30.7809 16.143 30.7809C17.1478 30.7809 18.0238 31.4577 18.273 32.4273L18.2738 32.4308C20.0247 39.2265 26.1535 43.9724 33.1772 43.9724C37.8735 43.9724 42.085 41.8579 44.9101 38.5326C42.578 36.2652 40.722 33.5105 39.5081 30.4356C38.7056 33.1728 36.1709 35.1778 33.1772 35.1778C30.1661 35.1778 27.5397 33.1456 26.7897 30.2363C25.5404 25.3784 21.1627 21.9859 16.143 21.9859ZM82.9785 21.9863C82.9785 9.86264 73.1157 0 60.9924 0C51.7443 0 43.8115 5.73943 40.5692 13.8436C43.6827 15.4115 46.2347 17.9377 47.8347 21.032C48.3256 14.2015 54.0393 8.7944 60.9924 8.7944C68.2664 8.7944 74.1841 14.7123 74.1841 21.9863C74.1841 29.2596 68.2664 35.1778 60.9924 35.1778C54.8829 35.1778 49.4719 30.8612 48.1258 24.9136L48.1011 24.8092C46.3757 17.9688 40.2387 13.1915 33.1772 13.1915C27.2901 13.1915 22.1645 16.5145 19.5771 21.3834C22.6498 22.2944 25.2156 24.3971 26.7369 27.1529H26.7378C27.392 24.2008 30.0308 21.9863 33.1772 21.9863C36.2049 21.9863 38.8348 24.0318 39.5737 26.9601H39.5747C40.6737 31.7055 43.368 36.0099 47.1744 39.0876C51.0686 42.2377 55.976 43.9724 60.9924 43.9724C73.1157 43.9724 82.9785 34.1095 82.9785 21.9863Z" fill="#5190D8"></path>
    </g>
  </g>
  <defs>
    <clipPath id="clip0_24_31">
      <rect width="82.9786" height="70" fill="white"></rect>
    </clipPath>
  </defs>
</svg>
